<?xml version="1.0" encoding="UTF-8" standalone="no"?>
<svg width="410px" height="410px" viewBox="0 0 410 410" version="1.1" xmlns="http://www.w3.org/2000/svg" xmlns:xlink="http://www.w3.org/1999/xlink" xmlns:sketch="http://www.bohemiancoding.com/sketch/ns">
    <!-- Generator: Sketch 3.4.4 (17249) - http://www.bohemiancoding.com/sketch -->
    <title>FAK_BGU_RGB</title>
    <desc>Created with Sketch.</desc>
    <defs></defs>
    <g id="TUM_Fakultätszeichen" stroke="none" stroke-width="1" fill="none" fill-rule="evenodd" sketch:type="MSPage">
        <g id="Blau---BASIS-Konstruktion" sketch:type="MSLayerGroup" transform="translate(-5892.000000, -40.000000)" fill="#0065BD">
            <path d="M6096.98622,441.652612 C6006.9664,441.652612 5930.95579,380.824122 5907.68976,298.149168 C5947.48582,264.594322 5995.64333,242.36217 6097.01378,242.36217 C6198.21892,242.36217 6246.40398,264.566773 6286.31024,298.149168 C6263.05799,380.824122 6187.01982,441.652612 6096.98622,441.652612 L6096.98622,441.652612 Z M5902.8134,213.917689 L6291.1866,213.917689 C6292.7845,224.041996 6293.65233,234.428019 6293.65233,244.993113 C6293.65233,261.012935 6291.69628,276.536872 6288.07344,291.454729 C6247.56108,258.065177 6198.21892,236.122291 6097.01378,236.122291 C5995.64333,236.122291 5946.32872,258.092726 5905.92656,291.482278 C5902.3175,276.564421 5900.33389,261.012935 5900.33389,244.993113 C5900.33389,234.428019 5901.18795,224.041996 5902.8134,213.917689 L5902.8134,213.917689 Z M6291.00001,208 L5904,207.999995 C5921.49429,117.349567 6001.31864,48.3336133 6096.98622,48.3336133 C6192.68136,48.3336133 6273.53327,118.363341 6291.00001,208 Z M5892,244.993113 C5892,358.027213 5983.94833,450 6096.98622,450 C6164.09919,450 6223.77979,417.587078 6261.2006,367.596823 C6286.81508,333.378577 6302,290.924683 6302,244.993113 C6302,131.959012 6210.0379,40 6096.98622,40 C5983.94833,40 5892,131.959012 5892,244.993113 Z" id="FAK_BGU_RGB" sketch:type="MSShapeGroup"></path>
        </g>
    </g>
</svg>